<svg xmlns="http://www.w3.org/2000/svg" version="1.1" xmlns:xlink="http://www.w3.org/1999/xlink" xmlns:svgjs="http://svgjs.dev/svgjs" width="128" height="128" viewBox="0 0 128 128"><g transform="matrix(0.8046875,0,0,0.8046875,12.411840748212605,12.814873242367192)"><svg viewBox="0 0 98 98" data-background-color="#ffffff" preserveAspectRatio="xMidYMid meet" height="127" width="128" xmlns="http://www.w3.org/2000/svg" xmlns:xlink="http://www.w3.org/1999/xlink"><g id="tight-bounds" transform="matrix(1,0,0,1,0.0838796764579115,0.0838796764579115)"><svg viewBox="0 0 97.83224064708416 97.83224064708416" height="97.83224064708416" width="97.83224064708416"><g><svg></svg></g><g><svg viewBox="0 0 97.83224064708416 97.83224064708416" height="97.83224064708416" width="97.83224064708416"><g><path d="M0 48.916c0-27.016 21.9-48.916 48.916-48.916 27.016 0 48.916 21.9 48.916 48.916 0 27.016-21.9 48.916-48.916 48.916-27.016 0-48.916-21.9-48.916-48.916zM48.916 93.244c24.481 0 44.328-19.846 44.328-44.328 0-24.481-19.846-44.328-44.328-44.327-24.481 0-44.328 19.846-44.327 44.327 0 24.481 19.846 44.328 44.327 44.328z" data-fill-palette-color="tertiary" fill="#ffa96a" stroke="transparent"></path><ellipse rx="46.9594755106004" ry="46.9594755106004" cx="48.91612032354208" cy="48.91612032354208" fill="#ffa96a" stroke="transparent" stroke-width="0" fill-opacity="1" data-fill-palette-color="tertiary"></ellipse></g><g transform="matrix(1,0,0,1,23.475902729557514,23.475393915029343)"><svg viewBox="0 0 50.880435187969134 50.881452817025476" height="50.881452817025476" width="50.880435187969134"><g><svg viewBox="0 0 50.880435187969134 50.881452817025476" height="50.881452817025476" width="50.880435187969134"><g><svg viewBox="0 0 50.880435187969134 50.881452817025476" height="50.881452817025476" width="50.880435187969134"><g id="textblocktransform"><svg viewBox="0 0 50.880435187969134 50.881452817025476" height="50.881452817025476" width="50.880435187969134" id="textblock"><g><svg viewBox="0 0 50.880435187969134 50.881452817025476" height="50.881452817025476" width="50.880435187969134"><g><svg viewBox="0 0 50.880435187969134 50.881452817025476" height="50.881452817025476" width="50.880435187969134"><g><svg version="1.1" xmlns="http://www.w3.org/2000/svg" xmlns:xlink="http://www.w3.org/1999/xlink" x="0" y="0" viewBox="0 0 99.998 100" enable-background="new 0 0 99.998 100" xml:space="preserve" width="50.880435187969134" height="50.881452817025476" class="icon-icon-0" data-fill-palette-color="quaternary" id="icon-0"><path fill="#ffffff" d="M83.999 71.808l-2.939-0.001 0.004-5.879 2.938 0.001c2.431 0 4.41-1.979 4.41-4.411V49.759c0-2.432-1.979-4.411-4.412-4.411H81.06v-5.879h2.939c5.675 0 10.291 4.617 10.291 10.29v11.759C94.29 67.191 89.674 71.808 83.999 71.808L83.999 71.808z" data-fill-palette-color="quaternary"></path><path fill="#ffffff" d="M0 92.65C0 96.713 3.262 100 7.294 100h85.409c4.032 0 7.295-3.287 7.295-7.35H0z" data-fill-palette-color="quaternary"></path><path fill="#ffffff" d="M42.542 10.74c3.299 9.899-5.228 12.54-5.228 12.54l-0.039 0.061c0.086-0.144 2.065-3.614-0.311-10.742C33.665 2.7 42.192 0.06 42.192 0.06L42.231 0C42.144 0.143 40.167 3.615 42.542 10.74z" data-fill-palette-color="quaternary"></path><path fill="#ffffff" d="M52.787 10.74c3.298 9.899-5.228 12.54-5.228 12.54l-0.039 0.061c0.085-0.144 2.064-3.614-0.311-10.742C43.909 2.7 52.438 0.06 52.438 0.06L52.478 0C52.39 0.143 50.412 3.615 52.787 10.74z" data-fill-palette-color="quaternary"></path><path fill="#ffffff" d="M63.032 10.74c3.299 9.899-5.227 12.54-5.227 12.54l-0.039 0.061c0.085-0.144 2.064-3.614-0.311-10.742C54.156 2.7 62.684 0.06 62.684 0.06L62.723 0C62.636 0.143 60.658 3.615 63.032 10.74z" data-fill-palette-color="quaternary"></path><path fill="#ffffff" d="M22.069 29.18v47.038c0 6.5 5.26 11.759 11.759 11.759h32.34c6.499 0 11.759-5.259 11.759-11.759V29.18H22.069zM69.107 74.748c0 0.811-0.659 1.47-1.47 1.47-0.813 0-1.47-0.659-1.47-1.47V36.529c0-0.811 0.656-1.47 1.47-1.47 0.811 0 1.47 0.659 1.47 1.47V74.748z" data-fill-palette-color="quaternary"></path></svg></g></svg></g></svg></g></svg></g></svg></g><g></g></svg></g></svg></g></svg></g><defs></defs></svg><rect width="97.83224064708416" height="97.83224064708416" fill="none" stroke="none" visibility="hidden"></rect></g></svg></g></svg>